<svg xmlns="http://www.w3.org/2000/svg" viewBox="0 0 140.62 23.84"><defs><style>.cls-1{fill:#231f20;}</style></defs><title>Asset 1</title><g id="Layer_2" data-name="Layer 2"><g id="Layer_1-2" data-name="Layer 1"><path class="cls-1" d="M1.84,16.77H2.4v2a4.21,4.21,0,0,0,1.21,2.82A8.86,8.86,0,0,0,6.82,23.8a10.85,10.85,0,0,0,4.17.83,8.52,8.52,0,0,0,3-.51,4.64,4.64,0,0,0,2.07-1.45,3.34,3.34,0,0,0,.75-2.16A2.8,2.8,0,0,0,16,18.42a6.56,6.56,0,0,0-2.12-1.36c-.84-.35-2-.75-3.4-1.2l-.15,0-.14,0,0,0h0C8.38,15.23,7,14.74,6,14.29a7.4,7.4,0,0,1-2.66-1.9,4.49,4.49,0,0,1-1.1-3.1,4.68,4.68,0,0,1,.86-2.8A5.59,5.59,0,0,1,5.52,4.62a9.69,9.69,0,0,1,3.77-.68A10.74,10.74,0,0,1,12,4.28a10.25,10.25,0,0,1,2.42,1A11.44,11.44,0,0,1,15.53,6a6.9,6.9,0,0,1,1,.88V3h.58v8.62h-.55V9.7a3.39,3.39,0,0,0-1.17-2.32,9,9,0,0,0-3-1.95,9.82,9.82,0,0,0-3.72-.76A6.82,6.82,0,0,0,4.54,5.76,3.43,3.43,0,0,0,3.07,8.68a3.22,3.22,0,0,0,.77,2.17,5.64,5.64,0,0,0,2.05,1.46,25.54,25.54,0,0,0,3.26,1.16,3,3,0,0,0,.42.14l.42.12.47.12q2.31.76,3.84,1.44a7.17,7.17,0,0,1,2.51,1.82,4,4,0,0,1,1,2.73,4.78,4.78,0,0,1-.89,2.88,5.6,5.6,0,0,1-2.54,1.9,10.51,10.51,0,0,1-3.84.65,13.37,13.37,0,0,1-3.19-.36,10.29,10.29,0,0,1-2.66-1.07A13.41,13.41,0,0,1,3.48,23a13.63,13.63,0,0,1-1-.95v3.68H1.84Z" transform="translate(-1.84 -2.95)"/><path class="cls-1" d="M29,25.13a7.87,7.87,0,0,1-4-1,7.43,7.43,0,0,1-3.81-6.6A7.43,7.43,0,0,1,25,10.93a8,8,0,0,1,4-1,8.08,8.08,0,0,1,4,1,7.18,7.18,0,0,1,2.79,2.73,7.92,7.92,0,0,1,0,7.74A7.18,7.18,0,0,1,33,24.13,8,8,0,0,1,29,25.13Zm0-.56a5.9,5.9,0,0,0,3.2-.89,6,6,0,0,0,2.22-2.5,8,8,0,0,0,.81-3.65,8,8,0,0,0-.81-3.67,6,6,0,0,0-2.22-2.48,6.16,6.16,0,0,0-6.38,0,6.06,6.06,0,0,0-2.24,2.48,8.15,8.15,0,0,0-.8,3.67,8.13,8.13,0,0,0,.8,3.65,6,6,0,0,0,2.24,2.5A5.91,5.91,0,0,0,29,24.57Z" transform="translate(-1.84 -2.95)"/><path class="cls-1" d="M47.42,25.13a6.09,6.09,0,0,1-3.26-.85,5.39,5.39,0,0,1-2.07-2.45A9.43,9.43,0,0,1,41.37,18V10.81H38.65v-.58h4.21V18a7.62,7.62,0,0,0,1.32,4.75,4.57,4.57,0,0,0,6.22.86,5.53,5.53,0,0,0,1.81-2.37,8.57,8.57,0,0,0,.64-3.39v-7H49.52v-.58h7.69v.58H54.34V24.25h2.87v.58H52.85V21a6.29,6.29,0,0,1-2.1,3A5.31,5.31,0,0,1,47.42,25.13Z" transform="translate(-1.84 -2.95)"/><path class="cls-1" d="M65.94,25.13a4.52,4.52,0,0,1-3.46-1.32,5,5,0,0,1-1.24-3.62V10.81H57.73v-.58h3.39a1,1,0,0,0,.73-.27,1,1,0,0,0,.3-.79V6.37h.58v3.86h7.16v.58H62.73v9.67a4.07,4.07,0,0,0,1,3,3.66,3.66,0,0,0,2.73,1,5,5,0,0,0,2-.41A4.71,4.71,0,0,0,70,23.14v.76a5.44,5.44,0,0,1-1.71.86A7.43,7.43,0,0,1,65.94,25.13Z" transform="translate(-1.84 -2.95)"/><path class="cls-1" d="M71,24.25h2.86V5H71V4.38h4.35V14a6.32,6.32,0,0,1,2.11-3,5.31,5.31,0,0,1,3.33-1.1,6.05,6.05,0,0,1,3.25.85,5.4,5.4,0,0,1,2.08,2.45,9.43,9.43,0,0,1,.72,3.86v7.16h2.71v.58H82.31v-.58h3V17.06A7.6,7.6,0,0,0,84,12.33a4.58,4.58,0,0,0-6.22-.85A5.69,5.69,0,0,0,76,13.85a8.4,8.4,0,0,0-.66,3.39v7h3.19v.58H71Z" transform="translate(-1.84 -2.95)"/><path class="cls-1" d="M88.91,24.25h2.36l5.64-6.66L91.3,10.81H88.94v-.58H96.1v.58h-3l4.94,5.81L103,10.81H99.89v-.58h6.23v.58h-2.4l-5.29,6.25,5.9,7.19h2.17v.58H99.19v-.58h3.27L97.26,18,92,24.25h3.36v.58H88.91Z" transform="translate(-1.84 -2.95)"/><path class="cls-1" d="M118.59,24.83H107.17v-.52l10.46-13.5h-8.15A.88.88,0,0,0,109,11a3,3,0,0,0-.45.42.75.75,0,0,0-.19.47v4.24h-.56V8.65h.59v1.58h11v.52l-10.49,13.5h8.39a1.24,1.24,0,0,0,.67-.18,1.47,1.47,0,0,0,.47-.42.78.78,0,0,0,.17-.48V18.93h.59v7.86h-.59Z" transform="translate(-1.84 -2.95)"/><path class="cls-1" d="M119.15,24.25h3.36l7.42-9.64L122.54,5h-3.1V4.38h10V5h-4.94l6.67,8.56L137.88,5H133V4.38h8.67V5h-3.12l-7,9.05,7.8,10.23h3.09v.58H132.24v-.58h5.14l-7.1-9.17-7,9.17h5.37v.58h-9.46Z" transform="translate(-1.84 -2.95)"/></g></g></svg>