<svg width="24" height="24" viewBox="0 0 24 24" fill="none" xmlns="http://www.w3.org/2000/svg">
<path fill-rule="evenodd" clip-rule="evenodd" d="M7.16006 4.75C7.01707 4.75 6.8633 4.81195 6.73775 4.95031C6.61001 5.09108 6.52734 5.29633 6.52734 5.52381V18.6614L11.608 15.5508C11.8483 15.4037 12.1508 15.4037 12.3912 15.5508L17.4718 18.6614V5.52381C17.4718 5.29633 17.3891 5.09108 17.2614 4.95031C17.1358 4.81195 16.9821 4.75 16.8391 4.75H7.16006ZM5.62691 3.94232C6.01999 3.50914 6.56961 3.25 7.16006 3.25H16.8391C17.4295 3.25 17.9791 3.50914 18.3722 3.94232C18.7631 4.37308 18.9718 4.94301 18.9718 5.52381V20C18.9718 20.2714 18.8252 20.5216 18.5884 20.6543C18.3516 20.787 18.0616 20.7814 17.8302 20.6396L11.9996 17.0699L6.16896 20.6396C5.93749 20.7814 5.64752 20.787 5.41075 20.6543C5.17397 20.5216 5.02734 20.2714 5.02734 20V5.52381C5.02734 4.94301 5.23603 4.37308 5.62691 3.94232Z" fill="#757575"/>
</svg>
