<svg width="16" height="12" viewBox="0 0 16 12" fill="none" xmlns="http://www.w3.org/2000/svg">
<path d="M15.3333 0H0.666667C0.298667 0 0 0.298667 0 0.666667V11.3333C0 11.7013 0.298667 12 0.666667 12H15.3333C15.7013 12 16 11.7013 16 11.3333V0.666667C16 0.298667 15.7013 0 15.3333 0Z" fill="#002781"/>
<path d="M16 0.666667C16 0.298667 15.7013 0 15.3333 0H13.613L9.33333 3.292V0H6.66667V3.292L2.387 0H0.666667C0.298667 0 0 0.298667 0 0.666667V1.52867L4.07967 4.66667H0V7.33333H4.07967L0 10.4717V11.3333C0 11.7013 0.298667 12 0.666667 12H2.387L6.66667 8.708V12H9.33333V8.708L13.613 12H15.3333C15.7013 12 16 11.7013 16 11.3333V10.4717L11.9203 7.33333H16V4.66667H11.9203L16 1.52867V0.666667Z" fill="#E6E6E6"/>
<path d="M16 5.33333H8.66667V0H7.33333V5.33333H0V6.66667H7.33333V12H8.66667V6.66667H16V5.33333Z" fill="#D10D24"/>
<path d="M15.6671 0.101562L9.7334 4.66589H10.8267L16.0001 0.686562V0.665896C16.0001 0.421896 15.8624 0.217896 15.6671 0.101562Z" fill="#D10D24"/>
<path d="M10.8267 7.33398H9.7334L15.6671 11.8983C15.8624 11.782 16.0001 11.578 16.0001 11.334V11.3133L10.8267 7.33398Z" fill="#D10D24"/>
<path d="M5.17333 7.33398L0 11.3133V11.334C0 11.578 0.137667 11.782 0.333 11.8983L6.26667 7.33398H5.17333Z" fill="#D10D24"/>
<path d="M5.17333 4.66589H6.26667L0.333 0.101562C0.137667 0.217896 0 0.421896 0 0.665896V0.686562L5.17333 4.66589Z" fill="#D10D24"/>
</svg>
