<svg width="12" height="12" viewBox="0 0 12 12" fill="none" xmlns="http://www.w3.org/2000/svg">
<path fill-rule="evenodd" clip-rule="evenodd" d="M4.86555 0.62725C4.99857 0.746166 5.05814 0.926954 5.02187 1.10165C4.95426 1.42728 4.9188 1.76451 4.9188 2.11112C4.9188 4.85583 7.14418 7.08121 9.88889 7.08121C10.2355 7.08121 10.5727 7.04575 10.8984 6.97814C11.0731 6.94187 11.2538 7.00144 11.3728 7.13446C11.4917 7.26748 11.5307 7.45378 11.4752 7.62334C10.7386 9.87205 8.62548 11.5 6.12821 11.5C3.01993 11.5 0.5 8.98008 0.5 5.8718C0.5 3.37453 2.12796 1.26142 4.37667 0.52485C4.54623 0.46931 4.73253 0.508334 4.86555 0.62725ZM3.92665 1.80299C2.48132 2.58609 1.5 4.11446 1.5 5.8718C1.5 8.4278 3.57221 10.5 6.12821 10.5C7.88555 10.5 9.41392 9.51869 10.197 8.07336C10.0949 8.07857 9.99222 8.08121 9.88889 8.08121C6.59189 8.08121 3.9188 5.40812 3.9188 2.11112C3.9188 2.00779 3.92144 1.90506 3.92665 1.80299Z" fill="#292929"/>
</svg>
