<svg width="24" height="24" viewBox="0 0 24 24" fill="none" xmlns="http://www.w3.org/2000/svg">
<path fill-rule="evenodd" clip-rule="evenodd" d="M12.0001 2.25C9.32688 2.25 7.15918 4.4177 7.15918 7.09091C7.15918 8.40695 7.68562 9.79388 8.51714 10.8551C9.34641 11.9135 10.5657 12.75 12.0001 12.75C13.4345 12.75 14.6538 11.9135 15.483 10.8551C16.3146 9.79388 16.841 8.40695 16.841 7.09091C16.841 4.4177 14.6733 2.25 12.0001 2.25ZM8.65918 7.09091C8.65918 5.24612 10.1553 3.75 12.0001 3.75C13.8449 3.75 15.341 5.24612 15.341 7.09091C15.341 8.03387 14.9515 9.10148 14.3023 9.93001C13.6509 10.7614 12.8247 11.25 12.0001 11.25C11.1755 11.25 10.3493 10.7614 9.69788 9.93001C9.0487 9.10148 8.65918 8.03387 8.65918 7.09091Z" fill="#757575"/>
<path fill-rule="evenodd" clip-rule="evenodd" d="M9.54581 13.7051C6.42014 13.7051 3.88672 16.2385 3.88672 19.3642V20.1824C3.88672 20.5085 4.09838 20.7975 4.40902 20.8969L4.41013 20.8973L4.41306 20.8982L4.42175 20.9009L4.45035 20.9097C4.47441 20.9169 4.50843 20.9269 4.55233 20.9393C4.64014 20.9641 4.76749 20.9984 4.93378 21.0389C5.26637 21.1199 5.75469 21.226 6.39392 21.3314C7.67248 21.5423 9.55423 21.7505 12.0004 21.7505C14.4465 21.7505 16.3282 21.5423 17.6068 21.3314C18.246 21.226 18.7343 21.1199 19.0669 21.0389C19.2332 20.9984 19.3606 20.9641 19.4484 20.9393C19.4923 20.9269 19.5263 20.9169 19.5504 20.9097L19.579 20.9009L19.5876 20.8982L19.5906 20.8973L19.5926 20.8967C19.5926 20.8967 19.5926 20.8967 19.364 20.1824L19.5926 20.8967C19.9032 20.7973 20.114 20.5085 20.114 20.1824V19.3642C20.114 16.2385 17.5806 13.7051 14.4549 13.7051H9.54581ZM4.63672 20.1824L4.40902 20.8969C4.40902 20.8969 4.40814 20.8967 4.63672 20.1824ZM6.63804 19.8514C6.0998 19.7627 5.68156 19.6744 5.38672 19.6049V19.3642C5.38672 17.0669 7.24857 15.2051 9.54581 15.2051H14.4549C16.7521 15.2051 18.614 17.0669 18.614 19.3642V19.6049C18.3192 19.6744 17.9009 19.7627 17.3627 19.8514C16.1611 20.0496 14.361 20.2505 12.0004 20.2505C9.63966 20.2505 7.83959 20.0496 6.63804 19.8514Z" fill="#757575"/>
</svg>
